<svg width="12" height="14" viewBox="0 0 12 14" fill="none" xmlns="http://www.w3.org/2000/svg">
<path d="M6.32444 0.148437L11.8244 5.33594C11.9494 5.42969 11.9807 5.58594 11.9807 5.71094C11.9807 5.83594 11.9494 5.96094 11.8557 6.05469C11.6682 6.27344 11.3557 6.27344 11.1682 6.08594L6.48069 1.71094L6.48069 13.4922C6.48069 13.7734 6.26194 13.9922 6.01194 13.9922C5.76194 13.9922 5.48069 13.7734 5.48069 13.4922L5.48069 1.71094L0.824444 6.08594C0.636944 6.27344 0.324444 6.27344 0.136944 6.05469C-0.050556 5.83594 -0.050556 5.52344 0.168194 5.33594L5.66819 0.148437C5.85569 -0.0390628 6.13694 -0.0390628 6.32444 0.148437Z" fill="white"/>
</svg>
