<?xml version="1.0" encoding="utf-8"?>
<!-- Generator: Adobe Illustrator 27.1.0, SVG Export Plug-In . SVG Version: 6.00 Build 0)  -->
<svg version="1.1" xmlns="http://www.w3.org/2000/svg" xmlns:xlink="http://www.w3.org/1999/xlink" x="0px" y="0px"
	 viewBox="0 0 500 500" style="enable-background:new 0 0 500 500;" xml:space="preserve">
<style type="text/css">
	.st0{display:none;}
	.st1{display:inline;stroke:#000000;stroke-miterlimit:10;}
	.st2{opacity:0.4;}
	.st3{fill:#FFFFFF;}
	.st4{opacity:0.8;fill:#FFFFFF;enable-background:new    ;}
	.st5{opacity:0.2;fill:#FFFFFF;enable-background:new    ;}
	.st6{opacity:0.2;}
	.st7{opacity:0.8;}
	.st8{opacity:0.5;fill:#FFFFFF;enable-background:new    ;}
</style>
<g id="Laag_3" class="st0">
	<rect x="0.3" y="2.3" class="st1" width="500.3" height="500.3"/>
</g>
<g id="Laag_2_00000082355458911030119790000014217944511157407156_">
	<g class="st2">
		<g>
			<circle class="st3" cx="236.6" cy="350.4" r="4.3"/>
		</g>
		<g>
			<circle class="st3" cx="359.9" cy="389.2" r="4.5"/>
		</g>
		<g>
			<circle class="st3" cx="236.2" cy="425" r="4.3"/>
		</g>
		<g>
			<circle class="st3" cx="186.1" cy="414.4" r="4.1"/>
		</g>
		<g>
			
				<ellipse transform="matrix(0.1602 -0.9871 0.9871 0.1602 -338.6338 544.9504)" class="st3" cx="150.9" cy="471.5" rx="5.2" ry="5.2"/>
		</g>
		<g>
			<circle class="st4" cx="110.1" cy="466.1" r="5"/>
		</g>
		<g>
			<circle class="st3" cx="77" cy="400.4" r="4.7"/>
		</g>
		<g>
			<circle class="st3" cx="18.3" cy="355.6" r="3.4"/>
		</g>
		<g>
			<circle class="st5" cx="61.9" cy="350.4" r="5.9"/>
		</g>
		<g>
			<circle class="st3" cx="89.2" cy="269.7" r="4.1"/>
		</g>
		<g>
			<circle class="st3" cx="144.2" cy="343.6" r="5.4"/>
		</g>
		<g>
			<circle class="st3" cx="136.3" cy="263.6" r="3.4"/>
		</g>
		<g class="st6">
			<circle class="st3" cx="194.5" cy="317.9" r="6.3"/>
		</g>
		<g>
			<circle class="st3" cx="255.6" cy="306.9" r="3.4"/>
		</g>
		<g>
			<circle class="st3" cx="282.9" cy="282.5" r="3.8"/>
		</g>
		<g>
			<circle class="st3" cx="337.2" cy="277.5" r="4.7"/>
		</g>
		<g class="st6">
			<circle class="st3" cx="351.9" cy="309.6" r="6.3"/>
		</g>
		<g>
			<circle class="st3" cx="410.7" cy="294.2" r="4.5"/>
		</g>
		<g>
			
				<ellipse transform="matrix(0.1602 -0.9871 0.9871 0.1602 54.4533 699.3767)" class="st3" cx="438.2" cy="317.7" rx="3.8" ry="3.8"/>
		</g>
		<g class="st7">
			<circle class="st3" cx="446.6" cy="370.9" r="4.3"/>
		</g>
		<g>
			<circle class="st3" cx="471.6" cy="410.8" r="4.1"/>
		</g>
		<g>
			<circle class="st3" cx="16.5" cy="443.3" r="3.4"/>
		</g>
		<g>
			<path class="st3" d="M-4.7,269.4"/>
		</g>
		<g>
			<circle class="st3" cx="44" cy="247.9" r="5.9"/>
		</g>
		<g>
			<circle class="st3" cx="61.4" cy="152.4" r="4.7"/>
		</g>
		<g>
			<circle class="st3" cx="154.8" cy="160.5" r="3.4"/>
		</g>
		<g>
			<circle class="st3" cx="170.3" cy="157.1" r="3.8"/>
		</g>
		<g>
			<circle class="st5" cx="204.8" cy="109.5" r="4.7"/>
		</g>
		<g>
			<circle class="st8" cx="233.5" cy="144.9" r="4.5"/>
		</g>
		<g>
			<circle class="st3" cx="290.2" cy="188.8" r="3.2"/>
		</g>
		<g>
			<circle class="st3" cx="336.8" cy="82.3" r="5.2"/>
		</g>
		<g>
			<circle class="st3" cx="386.1" cy="142" r="4.5"/>
		</g>
		<g>
			<circle class="st3" cx="441.4" cy="141.6" r="3.4"/>
		</g>
		<g>
			<circle class="st3" cx="492.1" cy="120.1" r="5"/>
		</g>
	</g>
	<g class="st2">
		<g>
			<circle class="st3" cx="324.1" cy="456.8" r="4.7"/>
		</g>
		<g>
			<circle class="st5" cx="303.6" cy="464.3" r="6.1"/>
		</g>
		<g>
			<circle class="st3" cx="299.5" cy="423" r="5.2"/>
		</g>
	</g>
	<g class="st2">
		<g>
			<circle class="st3" cx="464.2" cy="202.9" r="5.2"/>
		</g>
		<g>
			<circle class="st4" cx="426.3" cy="263.3" r="5.9"/>
		</g>
	</g>
	<g class="st2">
		<g>
			<path class="st3" d="M-1.7,151.9"/>
		</g>
		<g>
			<circle class="st4" cx="63.4" cy="112.7" r="6.1"/>
		</g>
		<g>
			<circle class="st3" cx="20.6" cy="26.8" r="4.1"/>
		</g>
		<g>
			<circle class="st3" cx="106.3" cy="9" r="4.7"/>
		</g>
		<g>
			<circle class="st3" cx="197.8" cy="43.9" r="3.2"/>
		</g>
		<g>
			<path class="st3" d="M328.4-6.8"/>
		</g>
		<g>
			<circle class="st3" cx="362.2" cy="27" r="5.4"/>
		</g>
	</g>
</g>
</svg>
